<mxfile host="app.diagrams.net" modified="2022-03-06T14:30:30.552Z" agent="5.0 (Macintosh; Intel Mac OS X 10_15_7) AppleWebKit/537.36 (KHTML, like Gecko) Chrome/98.0.4758.109 Safari/537.36" etag="fq6ikJcfCIeGL7AxVZ0t" version="16.6.6" type="github">
  <diagram id="82YQ2tCR58CQ1uHnUT0m" name="Page-1">
    <mxGraphModel dx="1224" dy="636" grid="1" gridSize="10" guides="1" tooltips="1" connect="1" arrows="1" fold="1" page="1" pageScale="1" pageWidth="850" pageHeight="1100" math="0" shadow="0">
      <root>
        <mxCell id="0" />
        <mxCell id="1" parent="0" />
      </root>
    </mxGraphModel>
  </diagram>
</mxfile>
